<svg xmlns="http://www.w3.org/2000/svg" viewBox="0 0 178.54 26.21"><defs><style>.cls-1{fill:#f15a29;}</style></defs><title>arrowheadlogo</title><g id="Layer_2" data-name="Layer 2"><g id="Layer_1-2" data-name="Layer 1"><path class="cls-1" d="M1.07,30.38,6.42,5.62h7.19l5.32,24.76H13.82l-1-5.6H7.24l-1,5.6Zm6.82-9.14h4.24L10,9.61Z" transform="translate(-1.07 -4.9)"/><path class="cls-1" d="M29.13,5.62a9.57,9.57,0,0,1,5.8,1.52,5,5,0,0,1,2,4.28v1.79a6.11,6.11,0,0,1-.88,3.41,4.5,4.5,0,0,1-2.54,1.85c2.14.53,3.21,2.18,3.21,4.93v4.54a5.55,5.55,0,0,0,.39,2.44H32a7.33,7.33,0,0,1-.24-2.19V23.11a3.14,3.14,0,0,0-.64-2.23,3.12,3.12,0,0,0-2.24-.64H27.51V30.38h-5V5.62Zm0,3.53H27.51v7.56h1.62a3.1,3.1,0,0,0,2.25-.64A3.15,3.15,0,0,0,32,13.82V12a3.19,3.19,0,0,0-.62-2.24A3.22,3.22,0,0,0,29.13,9.15Z" transform="translate(-1.07 -4.9)"/><path class="cls-1" d="M47.81,5.62a9.55,9.55,0,0,1,5.8,1.52,5,5,0,0,1,2.06,4.28v1.79a6.11,6.11,0,0,1-.89,3.41,4.47,4.47,0,0,1-2.54,1.85c2.15.53,3.22,2.18,3.22,4.93v4.54a5.55,5.55,0,0,0,.39,2.44H50.73a7.26,7.26,0,0,1-.25-2.19V23.11a3.1,3.1,0,0,0-.64-2.23,3.09,3.09,0,0,0-2.24-.64H46.2V30.38h-5V5.62Zm0,3.53H46.2v7.56h1.61a3.1,3.1,0,0,0,2.25-.64,3.15,3.15,0,0,0,.64-2.25V12a3.14,3.14,0,0,0-.63-2.24A3.2,3.2,0,0,0,47.81,9.15Z" transform="translate(-1.07 -4.9)"/><path class="cls-1" d="M67.39,4.9q7.5,0,7.49,8V23.11q0,8-7.49,8t-7.48-8V12.88Q59.91,4.9,67.39,4.9Zm0,3.53a2,2,0,0,0-1.93,1,7.32,7.32,0,0,0-.58,3.41V23.11a7.35,7.35,0,0,0,.58,3.41,2.31,2.31,0,0,0,3.87,0,7.48,7.48,0,0,0,.58-3.41V12.88a7.45,7.45,0,0,0-.58-3.41A2,2,0,0,0,67.39,8.43Z" transform="translate(-1.07 -4.9)"/><path class="cls-1" d="M78.49,5.62h4.65l2.2,18L88.79,5.58l5.25,0,3.47,18,2.19-18h4.64L101,30.38h-6L91.42,11.8,87.89,30.38h-6Z" transform="translate(-1.07 -4.9)"/><path class="cls-1" d="M107.93,30.38V5.62h5v10h5v-10h5V30.38h-5V19.19h-5V30.38Z" transform="translate(-1.07 -4.9)"/><path class="cls-1" d="M128,30.38V5.62H140.1V9.15h-7.17v6.5h6.8v3.54h-6.8v7.66h7.17v3.53Z" transform="translate(-1.07 -4.9)"/><path class="cls-1" d="M143.17,30.38l5.35-24.76h7.19L161,30.38h-5.11l-1-5.6h-5.54l-1.05,5.6ZM150,21.24h4.24L152.1,9.61Z" transform="translate(-1.07 -4.9)"/><path class="cls-1" d="M171.05,5.62q4.37,0,6.46,2c1.4,1.32,2.1,3.32,2.1,6v8.79q0,4-2.1,6c-1.4,1.32-3.55,2-6.46,2h-6.41V5.62Zm0,3.53h-1.44v17.7h1.44a3.4,3.4,0,0,0,2.83-1,5.84,5.84,0,0,0,.76-3.49V13.6a5.8,5.8,0,0,0-.76-3.48A3.4,3.4,0,0,0,171.05,9.15Z" transform="translate(-1.07 -4.9)"/></g></g></svg>